<mxfile host="Electron" modified="2023-12-07T09:16:22.032Z" agent="Mozilla/5.0 (Windows NT 10.0; Win64; x64) AppleWebKit/537.36 (KHTML, like Gecko) draw.io/21.1.2 Chrome/106.0.5249.199 Electron/21.4.3 Safari/537.36" etag="T2gaQ1ruffUCNHCtdge1" version="21.1.2" type="device">
  <diagram name="ページ1" id="RQGmKchtuPyJbL6AoLtQ">
    <mxGraphModel dx="978" dy="571" grid="1" gridSize="10" guides="1" tooltips="1" connect="1" arrows="1" fold="1" page="1" pageScale="1" pageWidth="827" pageHeight="1169" math="1" shadow="0">
      <root>
        <mxCell id="0" />
        <mxCell id="1" parent="0" />
        <mxCell id="Q5lteJr4x4tf_abmivlb-7" style="edgeStyle=orthogonalEdgeStyle;rounded=0;orthogonalLoop=1;jettySize=auto;html=1;exitX=0;exitY=1;exitDx=0;exitDy=0;exitPerimeter=0;entryX=1;entryY=0.5;entryDx=0;entryDy=0;endArrow=none;endFill=0;" edge="1" parent="1" source="Q5lteJr4x4tf_abmivlb-4" target="Q5lteJr4x4tf_abmivlb-1">
          <mxGeometry relative="1" as="geometry">
            <Array as="points">
              <mxPoint x="240" y="200" />
              <mxPoint x="240" y="200" />
            </Array>
          </mxGeometry>
        </mxCell>
        <mxCell id="Q5lteJr4x4tf_abmivlb-4" value="" style="pointerEvents=1;verticalLabelPosition=bottom;shadow=0;dashed=0;align=center;html=1;verticalAlign=top;shape=mxgraph.electrical.inductors.inductor_3;" vertex="1" parent="1">
          <mxGeometry x="249.5" y="192" width="100" height="8" as="geometry" />
        </mxCell>
        <mxCell id="Q5lteJr4x4tf_abmivlb-1" value="" style="verticalLabelPosition=bottom;shadow=0;dashed=0;align=center;html=1;verticalAlign=top;strokeWidth=1;shape=ellipse;perimeter=ellipsePerimeter;fontFamily=Helvetica;fontSize=11;fontColor=default;aspect=fixed;" vertex="1" parent="1">
          <mxGeometry x="237" y="197" width="6" height="6" as="geometry" />
        </mxCell>
        <mxCell id="Q5lteJr4x4tf_abmivlb-9" style="edgeStyle=orthogonalEdgeStyle;shape=connector;rounded=0;orthogonalLoop=1;jettySize=auto;html=1;exitX=0;exitY=0.5;exitDx=0;exitDy=0;entryX=1.1;entryY=0.5;entryDx=0;entryDy=0;entryPerimeter=0;labelBackgroundColor=default;strokeColor=default;fontFamily=Helvetica;fontSize=11;fontColor=default;endArrow=none;endFill=0;" edge="1" parent="1" source="Q5lteJr4x4tf_abmivlb-2" target="Q5lteJr4x4tf_abmivlb-6">
          <mxGeometry relative="1" as="geometry" />
        </mxCell>
        <mxCell id="Q5lteJr4x4tf_abmivlb-2" value="" style="verticalLabelPosition=bottom;shadow=0;dashed=0;align=center;html=1;verticalAlign=top;strokeWidth=1;shape=ellipse;perimeter=ellipsePerimeter;fontFamily=Helvetica;fontSize=11;fontColor=default;aspect=fixed;" vertex="1" parent="1">
          <mxGeometry x="397" y="197" width="6" height="6" as="geometry" />
        </mxCell>
        <mxCell id="Q5lteJr4x4tf_abmivlb-10" style="edgeStyle=orthogonalEdgeStyle;shape=connector;rounded=0;orthogonalLoop=1;jettySize=auto;html=1;exitX=0;exitY=0.5;exitDx=0;exitDy=0;exitPerimeter=0;entryX=0.983;entryY=0.467;entryDx=0;entryDy=0;entryPerimeter=0;labelBackgroundColor=default;strokeColor=default;fontFamily=Helvetica;fontSize=11;fontColor=default;endArrow=none;endFill=0;" edge="1" parent="1" source="Q5lteJr4x4tf_abmivlb-3" target="Q5lteJr4x4tf_abmivlb-6">
          <mxGeometry relative="1" as="geometry" />
        </mxCell>
        <mxCell id="Q5lteJr4x4tf_abmivlb-3" value="" style="pointerEvents=1;verticalLabelPosition=bottom;shadow=0;dashed=0;align=center;html=1;verticalAlign=top;shape=mxgraph.electrical.capacitors.capacitor_1;direction=south;" vertex="1" parent="1">
          <mxGeometry x="330" y="210" width="60" height="100" as="geometry" />
        </mxCell>
        <mxCell id="Q5lteJr4x4tf_abmivlb-8" style="edgeStyle=orthogonalEdgeStyle;shape=connector;rounded=0;orthogonalLoop=1;jettySize=auto;html=1;exitX=1;exitY=1;exitDx=0;exitDy=0;exitPerimeter=0;labelBackgroundColor=default;strokeColor=default;fontFamily=Helvetica;fontSize=11;fontColor=default;endArrow=none;endFill=0;" edge="1" parent="1" source="Q5lteJr4x4tf_abmivlb-4" target="Q5lteJr4x4tf_abmivlb-6">
          <mxGeometry relative="1" as="geometry" />
        </mxCell>
        <mxCell id="Q5lteJr4x4tf_abmivlb-5" value="" style="pointerEvents=1;verticalLabelPosition=bottom;shadow=0;dashed=0;align=center;html=1;verticalAlign=top;shape=mxgraph.electrical.signal_sources.signal_ground;" vertex="1" parent="1">
          <mxGeometry x="337.5" y="290" width="45" height="30" as="geometry" />
        </mxCell>
        <mxCell id="Q5lteJr4x4tf_abmivlb-6" value="" style="shape=waypoint;sketch=0;fillStyle=solid;size=6;pointerEvents=1;points=[];fillColor=none;resizable=0;rotatable=0;perimeter=centerPerimeter;snapToPoint=1;fontFamily=Helvetica;fontSize=11;fontColor=default;" vertex="1" parent="1">
          <mxGeometry x="350" y="190" width="20" height="20" as="geometry" />
        </mxCell>
        <mxCell id="Q5lteJr4x4tf_abmivlb-11" value="&lt;font style=&quot;font-size: 20px;&quot;&gt;`252.76` pH&lt;/font&gt;" style="text;html=1;align=center;verticalAlign=middle;resizable=0;points=[];autosize=1;strokeColor=none;fillColor=none;fontSize=11;fontFamily=Helvetica;fontColor=default;" vertex="1" parent="1">
          <mxGeometry x="234.5" y="152" width="130" height="40" as="geometry" />
        </mxCell>
        <mxCell id="Q5lteJr4x4tf_abmivlb-12" value="&lt;font style=&quot;font-size: 20px;&quot;&gt;`101.25` fF&lt;/font&gt;" style="text;html=1;align=center;verticalAlign=middle;resizable=0;points=[];autosize=1;strokeColor=none;fillColor=none;fontSize=11;fontFamily=Helvetica;fontColor=default;" vertex="1" parent="1">
          <mxGeometry x="217.5" y="240" width="120" height="40" as="geometry" />
        </mxCell>
      </root>
    </mxGraphModel>
  </diagram>
</mxfile>
